<?xml version="1.0" encoding="iso-8859-1"?>
<!-- Generator: Adobe Illustrator 19.0.0, SVG Export Plug-In . SVG Version: 6.00 Build 0)  -->
<svg version="1.1" id="Capa_1" xmlns="http://www.w3.org/2000/svg" xmlns:xlink="http://www.w3.org/1999/xlink" x="0px" y="0px"
	 viewBox="0 0 512 512" style="enable-background:new 0 0 512 512;" xml:space="preserve">
<path style="fill:#555A66;" d="M224.316,329.987L51.379,503.225c-11.701,11.701-30.903,11.701-42.604,0
	c-11.7-11.7-11.7-30.901,0-42.602l173.239-172.939l21.303,21.303L224.316,329.987z"/>
<path style="fill:#383838;" d="M224.316,329.987L51.379,503.225c-11.701,11.701-30.903,11.701-42.604,0l194.541-194.239
	L224.316,329.987z"/>
<path style="fill:#9E5015;" d="M454.734,57.266c-76.206-76.506-199.214-76.204-275.422,0c-76.506,76.207-76.205,199.214,0,275.42
	c76.206,76.507,199.214,76.207,275.422,0C531.239,256.482,530.939,133.473,454.734,57.266z"/>
<path style="fill:#663300;" d="M454.734,332.686c-76.206,76.207-199.214,76.507-275.422,0l275.422-275.42
	C530.939,133.473,531.239,256.482,454.734,332.686z"/>
<path style="fill:#E6F1FF;" d="M433.732,78.269c-30.002-29.702-71.105-48.303-116.708-48.303
	c-90.908,0-165.012,74.104-165.012,165.012c0,45.602,18.601,86.706,48.303,116.708c30.002,29.702,71.105,48.303,116.708,48.303
	c90.908,0,165.012-74.106,165.012-165.012C482.035,149.373,463.434,108.271,433.732,78.269z"/>
<path style="fill:#BFE1FF;" d="M482.035,194.977c0,90.906-74.104,165.012-165.012,165.012c-45.604,0-86.706-18.601-116.708-48.303
	L433.732,78.269C463.434,108.271,482.035,149.373,482.035,194.977z"/>
<path style="fill:#64E1DC;" d="M317.023,59.968c-74.404,0-135.01,60.603-135.01,135.01c0,74.404,60.605,135.01,135.01,135.01
	s135.01-60.605,135.01-135.01C452.033,120.571,391.428,59.968,317.023,59.968z"/>
<path style="fill:#00C8C8;" d="M452.033,194.977c0,74.404-60.605,135.01-135.01,135.01V59.968
	C391.428,59.968,452.033,120.571,452.033,194.977z"/>
<path style="fill:#69A8FF;" d="M317.023,89.97c-57.904,0-105.008,47.103-105.008,105.008s47.103,105.008,105.008,105.008
	s105.008-47.103,105.008-105.008S374.927,89.97,317.023,89.97z"/>
<path style="fill:#3389FF;" d="M422.031,194.977c0,57.904-47.103,105.008-105.008,105.008V89.97
	C374.927,89.97,422.031,137.073,422.031,194.977z"/>
<path style="fill:#64E1DC;" d="M317.023,135.872c-67.505,0-135.01,19.502-135.01,59.105c0,39.303,67.805,60.004,135.01,60.004
	s135.01-20.701,135.01-60.004C452.033,155.374,384.528,135.872,317.023,135.872z M317.023,224.979
	c-68.106,0-105.008-21.303-105.008-30.002c0-8.702,36.902-30.002,105.008-30.002s105.008,21.301,105.008,30.002
	C422.031,203.677,385.129,224.979,317.023,224.979z"/>
<path style="fill:#00C8C8;" d="M452.033,194.977c0,39.303-67.805,60.004-135.01,60.004v-30.002
	c68.106,0,105.008-21.303,105.008-30.002c0-8.702-36.902-30.002-105.008-30.002v-29.103
	C384.528,135.872,452.033,155.374,452.033,194.977z"/>
<path style="fill:#64E1DC;" d="M317.023,59.968c-39.303,0-60.004,67.805-60.004,135.01s20.702,135.01,60.004,135.01
	s60.004-67.805,60.004-135.01S356.326,59.968,317.023,59.968z M317.023,299.985c-8.7,0-30.002-36.904-30.002-105.008
	c0-68.106,21.303-105.008,30.002-105.008c8.7,0,30.002,36.902,30.002,105.008C347.025,263.081,325.723,299.985,317.023,299.985z"/>
<path style="fill:#00C8C8;" d="M377.028,194.977c0,67.205-20.702,135.01-60.004,135.01v-30.002c8.7,0,30.002-36.904,30.002-105.008
	c0-68.106-21.303-105.008-30.002-105.008V59.968C356.326,59.968,377.028,127.772,377.028,194.977z"/>
<g>
</g>
<g>
</g>
<g>
</g>
<g>
</g>
<g>
</g>
<g>
</g>
<g>
</g>
<g>
</g>
<g>
</g>
<g>
</g>
<g>
</g>
<g>
</g>
<g>
</g>
<g>
</g>
<g>
</g>
</svg>
